<svg xmlns="http://www.w3.org/2000/svg" width="274.487" height="245.315" data-name="Layer 1" viewBox=".043 -.004 274.487 245.315"><defs><radialGradient id="a" cx="4717.4" cy="2815.27" r="130.18" gradientUnits="userSpaceOnUse"><stop offset=".57" stop-color="#130c0e"/><stop offset=".8" stop-color="#130c0e"/><stop offset="1" stop-color="#130c0e"/></radialGradient></defs><path fill="url(#a)" fill-rule="evenodd" d="M4752.2,2884.57H4783L4763.63,2851l30.81-53.36L4742,2706.87a28.38,28.38,0,0,0-49.23,0l-41,71h30.81l34.79-60.24,46.21,80-30.8,53.36Zm-34.8-113.64-19.39,33.6H4636.4L4584,2895.3a28.38,28.38,0,0,0,24.62,42.63h84.32l-15.41-26.68h-71.93l46.21-80h61.62l19.4-33.59Zm6.33,167h102.47a28.39,28.39,0,0,0,24.62-42.63l-41-71-15.4,26.68,34.78,60.25h-90.08l-30.8-53.36H4667.2l-15.4,26.68h41.13Z" transform="translate(-4580.12 -2692.62)"/></svg>